<svg data-v-423bf9ae="" xmlns="http://www.w3.org/2000/svg" viewBox="0 0 275.8126710472631 60" class="font"><!----><!----><defs data-v-423bf9ae=""><linearGradient data-v-423bf9ae="" gradientTransform="rotate(25)" id="f802d5c4-0b35-41ab-91a6-c1944da42bbf" x1="0%" y1="0%" x2="100%" y2="0%"><stop data-v-423bf9ae="" offset="0%" style="stop-color: rgb(150, 138, 191); stop-opacity: 1;"></stop><stop data-v-423bf9ae="" offset="100%" style="stop-color: rgb(228, 168, 170); stop-opacity: 1;"></stop></linearGradient></defs><g data-v-423bf9ae="" id="3ebff5f6-d28a-49e5-ace1-06870ae0c845" fill="url(#f802d5c4-0b35-41ab-91a6-c1944da42bbf)" transform="matrix(5.509641699578938,0,0,5.509641699578938,-1.5426981534979518,4.76837158203125e-7)"><path d="M3.00 7.29L3.00 7.29Q3.00 7.52 2.81 7.60Q2.63 7.67 2.34 7.67L2.34 7.67Q2.16 7.67 1.71 7.50Q1.26 7.34 0.84 6.94L0.84 6.94L0.28 8.20Q0.81 8.69 1.36 8.88Q1.92 9.07 2.62 9.07L2.62 9.07Q3.16 9.07 3.68 8.88Q4.20 8.68 4.54 8.26Q4.89 7.84 4.89 7.15L4.89 7.15Q4.89 6.72 4.65 6.43Q4.41 6.15 4.06 5.96Q3.71 5.77 3.36 5.62Q3.01 5.47 2.77 5.33Q2.53 5.18 2.53 4.97L2.53 4.97Q2.53 4.66 2.93 4.66L2.93 4.66Q3.11 4.66 3.41 4.82Q3.71 4.98 4.13 5.39L4.13 5.39L4.69 4.13Q4.17 3.64 3.67 3.45Q3.16 3.26 2.77 3.26L2.77 3.26Q2.24 3.26 1.75 3.41Q1.26 3.56 0.95 3.92Q0.64 4.28 0.64 4.97L0.64 4.97Q0.64 5.47 0.88 5.80Q1.12 6.12 1.47 6.31Q1.82 6.51 2.17 6.66Q2.52 6.80 2.76 6.94Q3.00 7.08 3.00 7.29ZM5.52 3.47L5.52 4.87L6.50 4.87L6.50 8.86L8.39 8.86L8.39 4.87L9.51 4.87L9.51 3.47L8.39 3.47L8.39 1.72L6.50 2.56L6.50 3.47L5.52 3.47ZM12.10 6.17L12.10 6.17Q12.10 5.67 12.35 5.31Q12.60 4.94 13.10 4.94L13.10 4.94Q13.61 4.94 13.86 5.31Q14.11 5.67 14.11 6.17L14.11 6.17Q14.11 6.68 13.86 7.04Q13.61 7.39 13.10 7.39L13.10 7.39Q12.60 7.39 12.35 7.04Q12.10 6.68 12.10 6.17ZM10.28 6.17L10.28 6.17Q10.28 7.00 10.64 7.64Q11.00 8.27 11.64 8.64Q12.28 9.00 13.10 9.00L13.10 9.00Q13.93 9.00 14.57 8.67Q15.20 8.33 15.57 7.69Q15.93 7.06 15.93 6.17L15.93 6.17Q15.93 5.29 15.57 4.66Q15.20 4.02 14.57 3.68Q13.93 3.33 13.10 3.33L13.10 3.33Q12.28 3.33 11.64 3.68Q11.00 4.02 10.64 4.66Q10.28 5.29 10.28 6.17ZM20.61 5.75L21.66 4.35Q21.52 4.17 21.34 3.95Q21.15 3.72 20.89 3.56Q20.62 3.40 20.23 3.40L20.23 3.40Q19.84 3.40 19.43 3.71Q19.03 4.02 18.72 4.52L18.72 4.52L18.59 3.47L16.98 3.47L16.98 8.86L18.87 8.86L18.87 5.50Q19.05 5.32 19.26 5.20Q19.47 5.08 19.67 5.08L19.67 5.08Q20.06 5.08 20.23 5.27Q20.40 5.46 20.61 5.75L20.61 5.75ZM21.80 3.47L24.18 8.43L23.20 10.89L25.02 10.89L28.10 3.47L26.14 3.47L25.00 6.31L23.97 3.47L21.80 3.47ZM28.52 3.47L28.52 4.87L29.50 4.87L29.50 8.86L31.39 8.86L31.39 4.87L32.51 4.87L32.51 3.47L31.39 3.47L31.39 1.72L29.50 2.56L29.50 3.47L28.52 3.47ZM36.97 5.75L38.02 4.35Q37.88 4.17 37.70 3.95Q37.52 3.72 37.25 3.56Q36.99 3.40 36.60 3.40L36.60 3.40Q36.20 3.40 35.80 3.71Q35.39 4.02 35.08 4.52L35.08 4.52L34.96 3.47L33.35 3.47L33.35 8.86L35.24 8.86L35.24 5.50Q35.42 5.32 35.63 5.20Q35.84 5.08 36.04 5.08L36.04 5.08Q36.43 5.08 36.60 5.27Q36.76 5.46 36.97 5.75L36.97 5.75ZM41.65 5.89L41.65 6.09Q41.38 5.94 41.02 5.82Q40.66 5.71 40.22 5.71L40.22 5.71Q39.41 5.71 38.86 6.10Q38.30 6.48 38.30 7.29L38.30 7.29Q38.30 7.98 38.56 8.34Q38.82 8.71 39.22 8.86Q39.62 9.00 40.01 9.00L40.01 9.00Q40.56 9.00 40.97 8.80Q41.38 8.60 41.65 8.30L41.65 8.30L41.65 8.86L43.54 8.86L43.54 5.47Q43.54 4.45 43.00 3.89Q42.46 3.33 41.55 3.33L41.55 3.33Q40.74 3.33 40.01 3.65Q39.28 3.96 38.65 4.35L38.65 4.35L39.35 5.33Q39.77 5.04 40.21 4.92Q40.66 4.80 40.85 4.80L40.85 4.80Q41.36 4.80 41.50 5.05Q41.65 5.29 41.65 5.89L41.65 5.89ZM41.65 7.00L41.65 7.00L41.65 7.56Q41.51 7.71 41.31 7.83Q41.10 7.94 40.85 7.94L40.85 7.94Q40.56 7.94 40.45 7.72Q40.33 7.50 40.33 7.31L40.33 7.31Q40.33 7.11 40.48 6.93Q40.63 6.75 40.92 6.75L40.92 6.75Q41.23 6.75 41.39 6.83Q41.55 6.92 41.65 7.00ZM45.05 3.47L45.05 8.86L46.94 8.86L46.94 3.47L45.05 3.47ZM44.66 1.34L45.99 2.67L47.33 1.34L45.99 0L44.66 1.34ZM48.45 1.44L48.45 8.86L50.34 8.86L50.34 1.44L48.45 1.44Z"></path></g><!----><!----></svg>